<svg xmlns="http://www.w3.org/2000/svg" width="18" height="18" viewBox="0 0 512 512">
<style type="text/css"> svg,path{fill:#888;}</style>
<path d="M129.14 223.27L55.87 96.37C102.78 37.64 175 0 256 0c93.72 0 175.66 50.37 220.27 125.5H267.38c-3.75-.33-7.55-.5-11.38-.5-60.94 0-112.29 41.82-126.86 98.27zm218.51-60.77h146.73A255.33 255.33 0 0 1 512 256c0 140.41-113.05 254.4-253.1 255.96l104.7-181.34A130.26 130.26 0 0 0 387 256a130.6 130.6 0 0 0-39.35-93.5zM163 256c0-51.28 41.72-93 93-93s93 41.72 93 93-41.72 93-93 93-93-41.72-93-93zm128.1 126.22l-73.3 126.94C94.54 490.72 0 384.4 0 256a254.8 254.8 0 0 1 32.85-125.51L137.36 311.5C158.3 356.07 203.6 387 256 387c12.15 0 23.92-1.67 35.1-4.78z"/>
</svg>
