<svg xmlns="http://www.w3.org/2000/svg" viewBox="0 0 1018.38 140.97"><defs><style>.cls-1{fill:#2492ff;}</style></defs><title>资源 20</title><g id="图层_2" data-name="图层 2"><g id="图层_1-2" data-name="图层 1"><path class="cls-1" d="M38.83,56.33a8.05,8.05,0,0,1,8-8c15,0,29.28-.12,43.51.09,8,.11,14.56-1.38,14.8-10.86s-5.6-13-14.56-12.95c-15.49.16-31,0-46.46.07-17.45.13-23.21,5.49-23.52,22.85-.36,20.35-.06,40.7-.13,61.06,0,2-.09,3.94-.2,6a8,8,0,0,1-8,7.61H8.55a8,8,0,0,1-8-8C.3,86.23-.81,58.47,1.1,30.91,2.39,12.22,18.92.8,38.76.29,56-.16,73.26,0,90.52.2c31.84.39,47.49,29,31.07,56.57l-2.71,4.54c9.26,12,11.09,25.07,6.66,38.94-4,12.45-12.53,21.24-25.59,22-17.59,1-35.26.48-53.41.33a8,8,0,0,1-8-8v-8.09a8,8,0,0,1,8-8c12.93,0,25.95-.06,39,0,9.53.07,20,1.12,19.59-12.9-.41-13.65-11-12.6-20.39-12.59H46.88a8.06,8.06,0,0,1-8.05-8.05Z"/><path class="cls-1" d="M185.72,35.29h53.51L236,50.16H203.69l-3.55,17.3h30.93l-3.16,15h-31L190,115.34H168.65Z"/><path class="cls-1" d="M275,54.44q14.36,0,22.58,7.44t8.23,20.45q0,15.6-10.53,25.18t-27.89,9.58q-14.19,0-22.34-7.27t-8.14-19.89q0-16.22,10.28-25.85T275,54.44Zm9.91,27c0-4.1-1-7.35-3-9.78A10,10,0,0,0,273.82,68q-6.54,0-11.21,6.31a25.15,25.15,0,0,0-4.67,15.38,14.42,14.42,0,0,0,3.18,9.66,10.25,10.25,0,0,0,8.19,3.75q6.48,0,11.05-6.26T284.92,81.43Z"/><path class="cls-1" d="M367.5,55.68,362.89,73q-2.88-.8-5.1-1.18a22,22,0,0,0-3.86-.4q-6.6,0-10.31,4.11t-6,14.2l-5.52,25.63H311.34L323.45,55.8h18.82l-2.2,10.87q4.5-6.48,9.12-9.35a19.42,19.42,0,0,1,10.48-2.88,24.14,24.14,0,0,1,3.72.31A38.07,38.07,0,0,1,367.5,55.68Z"/><path class="cls-1" d="M427.39,91H384.85q.57,6.54,4.29,9.67c2.47,2.08,6.12,3.12,10.92,3.12a46,46,0,0,0,10.06-1.15,54.47,54.47,0,0,0,10.11-3.35l-2.31,14.64a71,71,0,0,1-10.81,2.54,73.78,73.78,0,0,1-11.1.84q-13.74,0-21.75-7.49t-8-20.34a37.16,37.16,0,0,1,2.87-14.22,35.51,35.51,0,0,1,7.72-11.86,30.47,30.47,0,0,1,11.4-7,45.47,45.47,0,0,1,15-2.33q12.28,0,18.9,6.64t6.62,18.93a46.71,46.71,0,0,1-.33,5.38A55.79,55.79,0,0,1,427.39,91ZM411.56,79.57c.11-.75.18-1.32.22-1.72a10.37,10.37,0,0,0,.06-1A10.68,10.68,0,0,0,409,69a10.07,10.07,0,0,0-7.55-2.87,12,12,0,0,0-8.56,3.57,20.89,20.89,0,0,0-5.41,9.89Z"/><path class="cls-1" d="M438.71,56h20.5l4.62,42.7L485,56h21.69l-34.82,59.32H448.62Z"/><path class="cls-1" d="M567.77,91H525.24q.56,6.54,4.28,9.67t10.93,3.12a45.93,45.93,0,0,0,10-1.15,54.22,54.22,0,0,0,10.11-3.35l-2.31,14.64a71,71,0,0,1-10.81,2.54,73.68,73.68,0,0,1-11.1.84q-13.74,0-21.74-7.49t-8-20.34a37.16,37.16,0,0,1,2.87-14.22,35.51,35.51,0,0,1,7.72-11.86,30.47,30.47,0,0,1,11.4-7,45.49,45.49,0,0,1,15-2.33q12.27,0,18.9,6.64t6.62,18.93a46.8,46.8,0,0,1-.34,5.38A53.38,53.38,0,0,1,567.77,91ZM551.94,79.57c.11-.75.19-1.32.22-1.72a10.37,10.37,0,0,0,.06-1A10.68,10.68,0,0,0,549.4,69a10.07,10.07,0,0,0-7.55-2.87,12,12,0,0,0-8.56,3.57,20.89,20.89,0,0,0-5.41,9.89Z"/><path class="cls-1" d="M630.75,55.68,626.13,73q-2.88-.8-5.1-1.18a21.88,21.88,0,0,0-3.86-.4q-6.58,0-10.31,4.11t-6,14.2l-5.52,25.63H574.58L586.7,55.8h18.81l-2.2,10.87q4.52-6.48,9.13-9.35a19.39,19.39,0,0,1,10.48-2.88,24.14,24.14,0,0,1,3.72.31A39.17,39.17,0,0,1,630.75,55.68Z"/><path class="cls-1" d="M679.48,35.29h30.25a93.3,93.3,0,0,1,10.64.48,21.38,21.38,0,0,1,6.43,1.61,17.82,17.82,0,0,1,7.74,6.33A16.41,16.41,0,0,1,737.27,53,18.72,18.72,0,0,1,731.47,67q-5.81,5.68-15.21,6.53,7.5,1.41,11.66,5.78a14.87,14.87,0,0,1,4.17,10.67,23.4,23.4,0,0,1-2.59,10.93,24,24,0,0,1-7.44,8.51,30.11,30.11,0,0,1-10.53,4.56q-6,1.41-16.84,1.41H662.41Zm11,45.24-4.28,20.16h9.58q7.61,0,11.69-3a10,10,0,0,0,4.08-8.56q0-4.35-2.68-6.48c-1.78-1.43-4.46-2.14-8-2.14ZM697.11,49l-3.78,18.36h7.38q7.38,0,11.52-2.73a8.56,8.56,0,0,0,4.14-7.52,7.33,7.33,0,0,0-2.59-5.91,10.6,10.6,0,0,0-7.1-2.2Z"/><path class="cls-1" d="M758.85,28.81h20.5l-18.3,86.53H740.48Z"/><path class="cls-1" d="M818.73,54.44q14.37,0,22.59,7.44t8.23,20.45q0,15.6-10.54,25.18t-27.88,9.58q-14.21,0-22.34-7.27t-8.14-19.89q0-16.22,10.28-25.85T818.73,54.44Zm9.92,27c0-4.1-1-7.35-3-9.78A10,10,0,0,0,817.55,68q-6.54,0-11.21,6.31a25.09,25.09,0,0,0-4.68,15.38,14.42,14.42,0,0,0,3.18,9.66,10.28,10.28,0,0,0,8.2,3.75q6.48,0,11-6.26T828.65,81.43Z"/><path class="cls-1" d="M910.89,56h20.56l-12.62,59.21q-2.64,13-11.69,19.35T882.5,141a65.37,65.37,0,0,1-11.49-1,78,78,0,0,1-11.78-3.13L863,121.48a32.67,32.67,0,0,0,8.59,3.78,37.26,37.26,0,0,0,10,1.29q9.63,0,14.76-5.52t6.81-17.69a31.83,31.83,0,0,1-10,9,24.78,24.78,0,0,1-12.08,3q-10.54,0-16.82-7t-6.28-18.93a41.3,41.3,0,0,1,1.72-12.05,35.36,35.36,0,0,1,5.09-10.43,28.22,28.22,0,0,1,10.51-9.26,30.45,30.45,0,0,1,13.94-3.19,22.15,22.15,0,0,1,11.52,3,21,21,0,0,1,8,8.71Zm-6,25.86a12.36,12.36,0,0,0-3.1-8.76,10.37,10.37,0,0,0-8-3.35q-6.2,0-10.53,5.88T879,90.22a12.09,12.09,0,0,0,2.82,8.31,9.44,9.44,0,0,0,7.43,3.18c4.28,0,8-1.94,11.07-5.8A21.74,21.74,0,0,0,904.92,81.88Z"/><path class="cls-1" d="M964.28,129.41l5.7-27.32H959.87l.73-3.51h24.27l-.73,3.51h-10l-5.7,27.32Z"/><path class="cls-1" d="M982.71,129.41l6.43-30.83h5.07l3.11,20a72.17,72.17,0,0,1,.8,7.55,83.61,83.61,0,0,1,4.29-8.44l10.81-19.09h5.16l-6.44,30.83h-4.06l3.22-15a120.75,120.75,0,0,1,3.2-11.65q-1.34,3-3.28,6.48l-11.49,20.17h-4l-3.09-19.77q-.42-2.72-.62-6.33-.52,4.06-1,6.43l-4.11,19.67Z"/></g></g></svg>