<svg width="130" height="28" viewBox="0 0 130 28" fill="none" xmlns="http://www.w3.org/2000/svg">
<path fill-rule="evenodd" clip-rule="evenodd" d="M14.1366 24.8851C20.1602 24.8851 25.0432 20.002 25.0432 13.9785C25.0432 7.95499 20.1602 3.07196 14.1366 3.07196C8.1131 3.07196 3.23007 7.95499 3.23007 13.9785C3.23007 20.002 8.1131 24.8851 14.1366 24.8851ZM14.1366 27.3637C21.5291 27.3637 27.5218 21.3709 27.5218 13.9785C27.5218 6.5861 21.5291 0.593353 14.1366 0.593353C6.74421 0.593353 0.751465 6.5861 0.751465 13.9785C0.751465 21.3709 6.74421 27.3637 14.1366 27.3637ZM21.5272 17.0717C17.4929 20.3385 11.7234 20.3385 7.68915 17.0717L9.24897 15.1454C12.3738 17.6758 16.8426 17.6758 19.9674 15.1454L21.5272 17.0717ZM9.36926 9.48169V12.8302H11.8479V9.48169H9.36926ZM17.0604 12.8302V9.48169H19.539V12.8302H17.0604ZM109.807 14.7872H114.301L112.09 7.81813L109.807 14.7872ZM110.036 3.76883H114.217L120.489 21.48H116.476L115.334 17.8392H108.81L107.584 21.48H103.715L110.036 3.76883ZM82.2102 8.09449C83.9325 8.09449 85.2782 8.71531 86.2475 9.95693C87.2248 11.1986 87.7134 12.8006 87.7134 14.7632C87.7134 16.7979 87.2328 18.4841 86.2715 19.8218C85.3103 21.1596 83.9685 21.8285 82.2463 21.8285C81.1649 21.8285 80.2957 21.6122 79.6389 21.1796C79.2463 20.9233 78.8218 20.4747 78.3652 19.8338V21.48H75.0128V3.79287H78.4253V10.0891C78.8578 9.48031 79.3345 9.0157 79.8551 8.69528C80.472 8.29475 81.257 8.09449 82.2102 8.09449ZM81.3331 19.0048C82.2142 19.0048 82.8991 18.6483 83.3878 17.9354C83.8764 17.2224 84.1207 16.2852 84.1207 15.1237C84.1207 14.1945 84.0006 13.4255 83.7602 12.8167C83.3036 11.6632 82.4626 11.0864 81.237 11.0864C79.9953 11.0864 79.1422 11.6511 78.6776 12.7806C78.4373 13.3814 78.3171 14.1584 78.3171 15.1117C78.3171 16.2331 78.5655 17.1624 79.0621 17.8993C79.5588 18.6363 80.3157 19.0048 81.3331 19.0048ZM61.6417 8.50303V10.9422H63.4681V19.0048C63.4681 19.8218 63.6603 20.4266 64.0448 20.8191C64.6376 21.4359 65.743 21.7163 67.3611 21.6602L68.9833 21.6002V19.0408C68.8711 19.0488 68.755 19.0568 68.6348 19.0648H68.3104C67.6135 19.0648 67.1969 19.0008 67.0608 18.8726C66.9246 18.7364 66.8565 18.4 66.8565 17.8633V10.9422H68.9833V8.50303H66.8565V4.85025H63.4681V8.50303H61.6417ZM54.8038 19.0648C55.8051 19.0648 56.5741 18.7084 57.1108 17.9954C57.6475 17.2825 57.9158 16.2692 57.9158 14.9555C57.9158 13.6417 57.6475 12.6324 57.1108 11.9275C56.5741 11.2146 55.8051 10.8581 54.8038 10.8581C53.8024 10.8581 53.0294 11.2146 52.4847 11.9275C51.948 12.6324 51.6797 13.6417 51.6797 14.9555C51.6797 16.2692 51.948 17.2825 52.4847 17.9954C53.0294 18.7084 53.8024 19.0648 54.8038 19.0648ZM61.5085 14.9555C61.5085 16.878 60.9558 18.5241 59.8504 19.8939C58.7449 21.2557 57.0667 21.9366 54.8158 21.9366C52.5648 21.9366 50.8866 21.2557 49.7812 19.8939C48.6757 18.5241 48.123 16.878 48.123 14.9555C48.123 13.065 48.6757 11.4269 49.7812 10.041C50.8866 8.65523 52.5648 7.96232 54.8158 7.96232C57.0667 7.96232 58.7449 8.65523 59.8504 10.041C60.9558 11.4269 61.5085 13.065 61.5085 14.9555ZM42.1262 8.07046C43.48 8.07046 44.5854 8.42693 45.4426 9.13986C46.3077 9.84478 46.7402 11.0183 46.7402 12.6605V21.48H43.2317V13.5136C43.2317 12.8247 43.1395 12.296 42.9553 11.9275C42.6189 11.2546 41.978 10.9182 41.0328 10.9182C39.8713 10.9182 39.0742 11.4108 38.6417 12.3961C38.4174 12.9168 38.3052 13.5817 38.3052 14.3907V21.48H34.8928V8.4069H38.1971V10.3174C38.6377 9.64452 39.0542 9.15989 39.4467 8.8635C40.1516 8.33481 41.0448 8.07046 42.1262 8.07046ZM90.1536 24.0153L89.721 23.9913V26.7309C90.0895 26.7549 90.3659 26.7669 90.5501 26.7669C90.7343 26.7749 90.9787 26.7789 91.2831 26.7789C92.797 26.7789 93.8064 26.4785 94.311 25.8778C94.8157 25.285 95.5006 23.747 96.3657 21.2637L100.86 8.38287H97.2188L94.5153 18.0435L91.6555 8.38287H87.8466L92.6528 22.0568C92.6849 22.1529 92.6128 22.4172 92.4366 22.8498C92.2683 23.2824 92.0841 23.5667 91.8838 23.7029C91.6756 23.8471 91.4192 23.9392 91.1148 23.9793C90.8104 24.0193 90.49 24.0313 90.1536 24.0153ZM123.644 18.4715V6.78148H121.463V3.76883H123.644H127.321H129.249V6.78148H127.321V18.4715H129.249V21.4841H121.463V18.4715H123.644Z" fill="black"/>
</svg>
