<svg xmlns="http://www.w3.org/2000/svg" viewBox="0 0 121.88 39"><defs><style>.a{fill:#7d7d7d;}.b{fill:#135eeb;}.c{fill:#15c2ff;}.d{fill:#2c82ff;}</style></defs><polygon class="a" points="54 30.1 54 13 48 13 48 10.1 63.6 10.1 63.6 13 57.6 13 57.6 30.1 54 30.1"/><path class="a" d="M73.4,30.1v-20h6.9c3.6,0,6.4.9,8.3,2.6s2.8,4.2,2.8,7.3a9.72,9.72,0,0,1-2.8,7.4c-1.9,1.8-4.8,2.7-8.6,2.7Zm3.6-3h3.6A7.66,7.66,0,0,0,86,25.3a6.8,6.8,0,0,0,1.9-5.2A6.8,6.8,0,0,0,86,14.9c-1.3-1.2-3.2-1.8-5.8-1.8H77v14Z"/><path class="a" d="M111.3,30.4a10.1,10.1,0,0,1-7.5-3,10.4,10.4,0,0,1,7.5-17.8,10.1,10.1,0,0,1,7.5,3,10.44,10.44,0,0,1,0,14.8A10.94,10.94,0,0,1,111.3,30.4Zm0-17.8a6.44,6.44,0,0,0-4.9,2.2,7.76,7.76,0,0,0,0,10.4,6.62,6.62,0,0,0,9.3.5l.5-.5a7.69,7.69,0,0,0,0-10.4A5.83,5.83,0,0,0,111.3,12.6Z"/><path class="a" d="M65.8,14.2a4.11,4.11,0,0,1,3.5-4.1h0V26a4.11,4.11,0,0,1-3.5,4.1h0Z"/><path class="a" d="M94.4,14.2a4.11,4.11,0,0,1,3.5-4.1h0V26a4.11,4.11,0,0,1-3.5,4.1h0Z"/><path class="b" d="M24.7.9A13.62,13.62,0,0,0,11.3,12.1a19.42,19.42,0,0,1,2.4-.2h0a19.42,19.42,0,0,0-2.4.2h0A13.62,13.62,0,0,0,.1,25.5V39H13.7A13.51,13.51,0,0,0,27,28H38.3V14.5A13.68,13.68,0,0,0,24.7.9ZM11.1,14.5a12.41,12.41,0,0,0,.3,2.7,12.41,12.41,0,0,1-.3-2.7ZM0,0"/><path class="c" d="M24.7,28.1A13.53,13.53,0,0,1,11.1,14.6h0a19.42,19.42,0,0,1,.2-2.4A13.43,13.43,0,0,0,.1,25.5V39H13.7A13.51,13.51,0,0,0,27,28H24.7Z"/><path class="d" d="M24.7.9A13.62,13.62,0,0,0,11.3,12.1a19.42,19.42,0,0,1,2.4-.2A13.53,13.53,0,0,1,27.3,25.4a22.75,22.75,0,0,1-.2,2.6H38.3V14.5A13.68,13.68,0,0,0,24.7.9Z"/></svg>