<?xml version="1.0" encoding="utf-8"?>
<!-- Generator: Adobe Illustrator 25.1.0, SVG Export Plug-In . SVG Version: 6.00 Build 0)  -->
<svg version="1.1" id="图层_3" xmlns="http://www.w3.org/2000/svg" xmlns:xlink="http://www.w3.org/1999/xlink" x="0px" y="0px"
	 viewBox="0 0 80 18" style="enable-background:new 0 0 80 18;" xml:space="preserve">
<style type="text/css">
	.st0{fill-rule:evenodd;clip-rule:evenodd;fill:#888888;}
	.st1{fill-rule:evenodd;clip-rule:evenodd;fill:url(#Path_1_);}
	.st2{fill-rule:evenodd;clip-rule:evenodd;fill:url(#Path_2_);}
	.st3{fill-rule:evenodd;clip-rule:evenodd;fill:url(#Path_3_);}
	.st4{fill-rule:evenodd;clip-rule:evenodd;fill:url(#Path_4_);}
	.st5{fill-rule:evenodd;clip-rule:evenodd;fill:url(#Path_5_);}
	.st6{fill-rule:evenodd;clip-rule:evenodd;fill:url(#Path_6_);}
	.st7{fill-rule:evenodd;clip-rule:evenodd;fill:url(#Path_7_);}
	.st8{fill-rule:evenodd;clip-rule:evenodd;fill:url(#Path_8_);}
</style>
<path id="Fill-170_1_" class="st0" d="M34.3,8c-0.2-0.5-0.4-1.1-0.7-1.6C34.9,6,36,5.6,37,5.3v-4h1.8v3.2C40.1,3.8,41.5,3,43,2
	L44,3.3c-1.6,1.1-3.3,2.1-5.3,3v0.8c0,0.8,0.4,1.2,1.2,1.1h1.4c0.7,0,1.2-0.3,1.3-0.9c0.1-0.4,0.2-1,0.2-1.7
	c0.6,0.2,1.2,0.4,1.7,0.5c-0.1,0.8-0.3,1.5-0.4,2.1c-0.2,1.1-1,1.6-2.5,1.6h-2.5c-1.6,0.1-2.4-0.7-2.3-2.3V7
	C36.2,7.3,35.3,7.6,34.3,8L34.3,8z M28.8,13.3v-1.7h7V9.9h1.8v1.7h7.1v1.7h-7.1V17h-1.8v-3.7H28.8z M29.3,7.5
	C29.2,7,29,6.3,28.6,5.7c1.8-1.2,3.3-2.7,4.5-4.7l1.7,0.7c-0.6,0.8-1.2,1.6-1.8,2.4v6.1h-1.8V5.9C30.7,6.4,30.1,7,29.3,7.5L29.3,7.5
	z"/>
<g id="华为logo上下排版_1_" transform="translate(0.588235, 0.220588)">
	
		<radialGradient id="Path_1_" cx="-5984.834" cy="3020.938" r="1.3052" gradientTransform="matrix(13.1215 0 0 -13.1215 78545.7891 39641.2383)" gradientUnits="userSpaceOnUse">
		<stop  offset="0" style="stop-color:#F7BFA4"/>
		<stop  offset="1.130752e-02" style="stop-color:#F7BB9F"/>
		<stop  offset="0.427" style="stop-color:#E60012"/>
		<stop  offset="0.6628" style="stop-color:#E50012"/>
		<stop  offset="0.7574" style="stop-color:#E10011"/>
		<stop  offset="0.8268" style="stop-color:#DA0010"/>
		<stop  offset="0.8838" style="stop-color:#CF000E"/>
		<stop  offset="0.9331" style="stop-color:#C00009"/>
		<stop  offset="0.9765" style="stop-color:#AE0003"/>
		<stop  offset="1" style="stop-color:#A00000"/>
	</radialGradient>
	<path id="Path_20_" class="st1" d="M3.7,9.2c1.8,1.8,6.2,4,7.2,4.5c0,0,0.1,0,0.1,0c0,0,0,0,0-0.1l0,0C8.2,7.5,4.4,2.9,4.4,2.9
		s-2.1,2-1.9,3.9C2.6,8.3,3.7,9.2,3.7,9.2z"/>
	
		<radialGradient id="Path_2_" cx="-4773.9316" cy="2418.3215" r="4.5191" gradientTransform="matrix(3.798 0 0 -3.798 18147.3262 9186.8291)" gradientUnits="userSpaceOnUse">
		<stop  offset="0" style="stop-color:#F7BFA4"/>
		<stop  offset="1.130752e-02" style="stop-color:#F7BB9F"/>
		<stop  offset="0.427" style="stop-color:#E60012"/>
		<stop  offset="0.6628" style="stop-color:#E50012"/>
		<stop  offset="0.7574" style="stop-color:#E10011"/>
		<stop  offset="0.8268" style="stop-color:#DA0010"/>
		<stop  offset="0.8838" style="stop-color:#CF000E"/>
		<stop  offset="0.9331" style="stop-color:#C00009"/>
		<stop  offset="0.9765" style="stop-color:#AE0003"/>
		<stop  offset="1" style="stop-color:#A00000"/>
	</radialGradient>
	<path id="Path_19_" class="st2" d="M10.3,15.2C10.3,15.1,10.2,15.1,10.3,15.2L10.3,15.2l-7.4,0.2c0.8,1.4,2.1,2.5,3.5,2.2
		C7.4,17.3,9.6,15.8,10.3,15.2L10.3,15.2C10.4,15.2,10.3,15.2,10.3,15.2z"/>
	
		<radialGradient id="Path_3_" cx="-5729.4668" cy="2893.8833" r="1.9849" gradientTransform="matrix(8.6452 0 0 -8.6452 49548.1875 25020.1641)" gradientUnits="userSpaceOnUse">
		<stop  offset="0" style="stop-color:#F7BFA4"/>
		<stop  offset="1.130752e-02" style="stop-color:#F7BB9F"/>
		<stop  offset="0.427" style="stop-color:#E60012"/>
		<stop  offset="0.6628" style="stop-color:#E50012"/>
		<stop  offset="0.7574" style="stop-color:#E10011"/>
		<stop  offset="0.8268" style="stop-color:#DA0010"/>
		<stop  offset="0.8838" style="stop-color:#CF000E"/>
		<stop  offset="0.9331" style="stop-color:#C00009"/>
		<stop  offset="0.9765" style="stop-color:#AE0003"/>
		<stop  offset="1" style="stop-color:#A00000"/>
	</radialGradient>
	<path id="Path_18_" class="st3" d="M3.5,14.3c0.7,0.3,1.4,0.3,1.4,0.3c0.1,0,4.3,0,5.5,0c0,0,0.1,0,0.1,0c0-0.1,0-0.1,0-0.1l0,0
		C7.2,12.3,1,9,1,9c-0.6,1.7,0.2,3.1,0.2,3.1C2,13.8,3.5,14.3,3.5,14.3z"/>
	
		<radialGradient id="Path_4_" cx="-4779.5503" cy="2420.313" r="4.5131" gradientTransform="matrix(3.807 0 0 -3.8069 18211.2832 9215.9424)" gradientUnits="userSpaceOnUse">
		<stop  offset="0" style="stop-color:#F7BFA4"/>
		<stop  offset="1.130752e-02" style="stop-color:#F7BB9F"/>
		<stop  offset="0.427" style="stop-color:#E60012"/>
		<stop  offset="0.6628" style="stop-color:#E50012"/>
		<stop  offset="0.7574" style="stop-color:#E10011"/>
		<stop  offset="0.8268" style="stop-color:#DA0010"/>
		<stop  offset="0.8838" style="stop-color:#CF000E"/>
		<stop  offset="0.9331" style="stop-color:#C00009"/>
		<stop  offset="0.9765" style="stop-color:#AE0003"/>
		<stop  offset="1" style="stop-color:#A00000"/>
	</radialGradient>
	<path id="Path_17_" class="st4" d="M22.4,15.4l-7.3-0.3l0,0c0,0-0.1,0-0.1,0.1c0,0,0,0.1,0,0.1l0,0c0.7,0.5,2.8,2,3.8,2.3
		C18.9,17.6,20.8,18.2,22.4,15.4z"/>
	
		<radialGradient id="Path_5_" cx="-5985.6582" cy="3020.6606" r="1.3086" gradientTransform="matrix(13.1068 0 0 -13.1068 78468.4141 39593.0781)" gradientUnits="userSpaceOnUse">
		<stop  offset="0" style="stop-color:#F7BFA4"/>
		<stop  offset="1.130752e-02" style="stop-color:#F7BB9F"/>
		<stop  offset="0.427" style="stop-color:#E60012"/>
		<stop  offset="0.6628" style="stop-color:#E50012"/>
		<stop  offset="0.7574" style="stop-color:#E10011"/>
		<stop  offset="0.8268" style="stop-color:#DA0010"/>
		<stop  offset="0.8838" style="stop-color:#CF000E"/>
		<stop  offset="0.9331" style="stop-color:#C00009"/>
		<stop  offset="0.9765" style="stop-color:#AE0003"/>
		<stop  offset="1" style="stop-color:#A00000"/>
	</radialGradient>
	<path id="Path_16_" class="st5" d="M14.3,13.6c0,0,0,0.1,0,0.1c0,0,0.1,0,0.1,0l0,0c1-0.5,5.4-2.7,7.2-4.5c0,0,1.1-0.9,1.2-2.4
		c0.1-2-1.9-3.9-1.9-3.9S17.1,7.5,14.3,13.6L14.3,13.6z"/>
	
		<radialGradient id="Path_6_" cx="-5653.7476" cy="2853.9553" r="2.1886" gradientTransform="matrix(7.8415 0 0 -7.8415 44349.5117 22381.1738)" gradientUnits="userSpaceOnUse">
		<stop  offset="0" style="stop-color:#F7BFA4"/>
		<stop  offset="1.130752e-02" style="stop-color:#F7BB9F"/>
		<stop  offset="0.427" style="stop-color:#E60012"/>
		<stop  offset="0.6628" style="stop-color:#E50012"/>
		<stop  offset="0.7574" style="stop-color:#E10011"/>
		<stop  offset="0.8268" style="stop-color:#DA0010"/>
		<stop  offset="0.8838" style="stop-color:#CF000E"/>
		<stop  offset="0.9331" style="stop-color:#C00009"/>
		<stop  offset="0.9765" style="stop-color:#AE0003"/>
		<stop  offset="1" style="stop-color:#A00000"/>
	</radialGradient>
	<path id="Path_15_" class="st6" d="M13.3,13C13.3,13.1,13.3,13.1,13.3,13c0.1,0.1,0.2,0,0.2,0l0,0c0.7-1,3.9-5.7,4.5-8.5
		c0,0,0.4-1.4,0-2.3c0,0-0.5-1.8-2.4-2.2c0,0-0.6-0.1-1.2-0.2l0,0C14.4-0.2,12.2,2.6,13.3,13L13.3,13z"/>
	
		<radialGradient id="Path_7_" cx="-5652.606" cy="2853.9495" r="2.1884" gradientTransform="matrix(7.8414 0 0 -7.8414 44339.9531 22380.8926)" gradientUnits="userSpaceOnUse">
		<stop  offset="0" style="stop-color:#F7BFA4"/>
		<stop  offset="1.130752e-02" style="stop-color:#F7BB9F"/>
		<stop  offset="0.427" style="stop-color:#E60012"/>
		<stop  offset="0.6628" style="stop-color:#E50012"/>
		<stop  offset="0.7574" style="stop-color:#E10011"/>
		<stop  offset="0.8268" style="stop-color:#DA0010"/>
		<stop  offset="0.8838" style="stop-color:#CF000E"/>
		<stop  offset="0.9331" style="stop-color:#C00009"/>
		<stop  offset="0.9765" style="stop-color:#AE0003"/>
		<stop  offset="1" style="stop-color:#A00000"/>
	</radialGradient>
	<path id="Path_14_" class="st7" d="M11.9,13.1C11.9,13.1,12,13.1,11.9,13.1C12,13.1,12,13,12,13l0,0c1.1-10.5-1.1-13.2-1.1-13.2
		C10.6-0.2,9.8,0,9.8,0C7.8,0.5,7.4,2.2,7.4,2.2c-0.4,1.1,0,2.3,0,2.3C8,7.4,11.2,12.1,11.9,13.1z"/>
	
		<radialGradient id="Path_8_" cx="-5730.8164" cy="2893.8267" r="1.9854" gradientTransform="matrix(8.644 0 0 -8.644 49552.7227 25016.0664)" gradientUnits="userSpaceOnUse">
		<stop  offset="0" style="stop-color:#F7BFA4"/>
		<stop  offset="1.130752e-02" style="stop-color:#F7BB9F"/>
		<stop  offset="0.427" style="stop-color:#E60012"/>
		<stop  offset="0.6628" style="stop-color:#E50012"/>
		<stop  offset="0.7574" style="stop-color:#E10011"/>
		<stop  offset="0.8268" style="stop-color:#DA0010"/>
		<stop  offset="0.8838" style="stop-color:#CF000E"/>
		<stop  offset="0.9331" style="stop-color:#C00009"/>
		<stop  offset="0.9765" style="stop-color:#AE0003"/>
		<stop  offset="1" style="stop-color:#A00000"/>
	</radialGradient>
	<path id="Path_13_" class="st8" d="M24.3,9c0,0-6.2,3.3-9.4,5.5l0,0c0,0-0.1,0,0,0.1c0,0,0,0.1,0.1,0.1l0,0c1.2,0,5.5,0,5.6,0
		c0,0,0.6,0,1.3-0.3c0,0,1.5-0.5,2.3-2.2C24.2,12,24.9,10.6,24.3,9z"/>
</g>
<path id="Fill-171_1_" class="st0" d="M54,1c-0.1,1.8-0.2,3.2-0.3,4h6.8c0,0.8-0.1,2.1-0.2,4c-0.1,2.1-0.2,3.6-0.2,4.4
	c0,2.1-1.1,3.2-3.2,3.2c-1,0-2.1,0.1-3.2,0.1c-0.1-0.7-0.3-1.3-0.5-1.9c1,0.1,2,0.1,2.9,0.1c1.4,0.1,2.1-0.6,2.1-2.1
	c0-0.4,0-1.1,0.1-2c0.1-1.9,0.2-3.3,0.2-4.1h-5c-0.3,4.4-2.5,7.8-6.4,10.3c-0.1-0.1-0.2-0.2-0.3-0.4c-0.4-0.5-0.8-0.9-1-1.2
	c3.7-2.2,5.6-5.1,5.8-8.7h-5.5V5h5.6c0.1-1.3,0.2-2.6,0.2-4H54z M54.7,8.6c1,0.9,1.8,1.7,2.6,2.5L56,12.4c-0.4-0.5-1.1-1.2-1.9-2.1
	c-0.3-0.3-0.5-0.5-0.6-0.7L54.7,8.6z M48.5,1.2c0.3,0.2,0.6,0.6,1.2,1.1c0.5,0.5,0.9,0.9,1.2,1.1l-1.4,1.3C48.8,3.9,48,3,47.2,2.2
	L48.5,1.2z"/>
<path id="Fill-172_1_" class="st0" d="M64.4,2.2h13V4h-13V2.2z M63,9.1V7.2h16v1.8h-8c-1.1,1.6-2.5,3.4-4.1,5.3c1.5,0,4-0.1,7.7-0.3
	c-0.7-1-1.4-2-2.2-2.9l1.5-1c0.7,0.8,1.7,2,3.1,3.8c0.7,0.9,1.2,1.5,1.5,1.8L76.8,17l-1-1.4c-1.5,0-3.9,0.2-7.2,0.3
	c-0.7,0-1.2,0.1-1.6,0.1c-0.8,0-1.6,0.1-2.2,0.3l-0.9-1.8c0.6-0.3,1.2-0.8,1.7-1.5c1.1-1.3,2-2.6,2.9-3.9H63z"/>
</svg>
