<?xml version="1.0" encoding="utf-8"?>
<!-- Generator: Adobe Illustrator 25.1.0, SVG Export Plug-In . SVG Version: 6.00 Build 0)  -->
<svg version="1.1" id="图层_1" xmlns="http://www.w3.org/2000/svg" xmlns:xlink="http://www.w3.org/1999/xlink" x="0px" y="0px"
	 viewBox="0 0 80 18" style="enable-background:new 0 0 80 18;" xml:space="preserve">
<style type="text/css">
	.st0{fill:#00a3ff;}
	.st1{fill:#00A3FF;}
	.st2{fill:#00C8DC;}
	.st3{fill:#006EFF;}
</style>
<g id="页面-1">
	<g id="logo">
		<g id="XMLID_25_" transform="translate(30.592488, 1.100000)">
			<path id="XMLID_38_" class="st0" d="M30.9,0.6h-9.1v1.3h2.8v4.8h-3.3V8h3.3v7.9h1.5V8h3.5v7.6h2.8v-1.3h-1.2V0.6H30.9z M26,6.5
				V1.9h3.6v4.8h-3.5V6.5H26z"/>
			<polygon id="XMLID_14_" class="st0" points="5.6,12.2 12.8,12.2 12.8,13.5 5.6,13.5 			"/>
			<path id="XMLID_33_" class="st0" d="M0.6,9.8c0,2.3-0.1,4.2-0.6,5.7c0,0.1,0,0.1,0.1,0.1c0,0,1.1,0,1.3,0c0.5-2.2,0.5-4,0.5-5.3
				h1.8v4H2.5c-0.1,0-0.1,0-0.1,0.1l0.4,1.2h2.3v-15H0.7L0.6,9.8L0.6,9.8z M2,9.2v-3h1.8v3.2H2V9.2z M3.9,1.9V5H2V1.9H3.9z"/>
			<path id="XMLID_30_" class="st0" d="M13.4,5.9h1.7V4.7H9.9c0.1-0.4,0.2-0.9,0.5-1.2h4.5V2.3h-1.2c0.1-0.7,0.5-1.6,0.5-1.6
				c0-0.1,0-0.1-0.1-0.1h-1.1l-0.5,1.7h-1.6c0.1-0.7,0.2-1.5,0.4-2.2c0-0.1,0-0.1-0.1-0.1s-0.9,0-1.2,0C9.8,0.9,9.7,1.7,9.4,2.4H8.5
				L7.9,0.7H6.8c-0.1,0-0.1,0-0.1,0.1s0.2,0.9,0.5,1.6H6v1.2h2.9C8.8,4,8.7,4.5,8.4,4.8H5.6V6h2.1C6.8,7.2,6,7.7,5.6,8
				c0,0.1,0,1.3,0,1.3c0,0.1,0.1,0.1,0.2,0C6.2,9.2,6.7,8.8,7,8.4h5v1.8H8.2l0.1-1.1C8.3,9,8.3,9,8.2,9S6.9,9,6.9,9l-0.1,2.2
				c0,0.1,0,0.1,0.1,0.1s6.7,0,6.7,0v3.2h-3c-0.1,0-0.1,0-0.1,0.1l0.4,1.2h4.3v-5.6h-1.6V7.8c0.6,0.5,1.2,1,1.8,1.2
				c0.1,0.1,0.2,0.1,0.2,0c0,0,0-1.2,0-1.3C15.1,7.5,14.2,7,13.4,5.9z M11.7,5.9c0.2,0.5,0.6,1,1,1.3H8.4c0.4-0.4,0.6-0.9,1-1.3
				H11.7L11.7,5.9z"/>
			<path id="XMLID_8_" class="st0" d="M22.6,11.3c0,0-1.2,0.9-2.4,1.8V4.7h-3.3v1.5h1.8v8.1c-0.5,0.4-0.9,0.5-0.9,0.5l0.9,1.1l4-2.9
				L22.6,11.3C22.9,11.3,22.8,11.2,22.6,11.3z"/>
			<path id="XMLID_7_" class="st0" d="M19,3.4h1.4c0.2,0,0.2-0.1,0.2-0.1l-2-3.1H17l-0.1,0.1C17,0.4,19,3.4,19,3.4z"/>
			<rect id="XMLID_6_" x="35.3" y="0.9" class="st0" width="11.4" height="1.5"/>
			<path id="XMLID_5_" class="st0" d="M39.4,7.8h9V6.3H33.6v1.5h4.1c-0.9,2.2-2.9,7.6-3,7.7c0,0.1,0,0.1,0.1,0.1h12.7
				c0.1,0,0.1-0.1,0.1-0.1l-1.8-4.9h-1.5c-0.1,0-0.1,0.1-0.1,0.1c0,0.1,1.3,3.5,1.3,3.5h-8.4L39.4,7.8z"/>
		</g>
		<g id="XMLID_19_">
			<path id="XMLID_22_" class="st1" d="M22.5,14.7c-0.4,0.4-1.2,1-2.6,1c-0.6,0-1.3,0-1.6,0c-0.4,0-3.4,0-7,0c2.6-2.5,4.8-4.6,5-4.8
				c0.2-0.2,0.7-0.7,1.2-1.1c1-0.9,1.8-1,2.5-1c1,0,1.8,0.4,2.5,1C23.9,11.1,23.9,13.4,22.5,14.7 M24.2,8.2c-1-1.1-2.5-1.8-4.1-1.8
				c-1.4,0-2.6,0.5-3.7,1.3c-0.4,0.4-1,0.8-1.5,1.4c-0.4,0.4-9,8.8-9,8.8C6.4,18,7,18,7.5,18s10.5,0,10.9,0c0.8,0,1.4,0,2-0.1
				c1.3-0.1,2.6-0.6,3.7-1.6C26.4,14.1,26.4,10.4,24.2,8.2z"/>
			<path id="XMLID_2_" class="st2" d="M10.2,7.6C9.1,6.8,8,6.4,6.7,6.4c-1.6,0-3.1,0.7-4.1,1.8c-2.2,2.3-2.2,5.9,0.1,8.2
				c1,0.9,2,1.4,3.2,1.5l2.3-2.2c-0.4,0-0.9,0-1.3,0c-1.3-0.1-2.1-0.5-2.6-1c-1.4-1.4-1.4-3.6-0.1-5c0.7-0.7,1.5-1,2.5-1
				c0.6,0,1.5,0.1,2.4,1c0.4,0.4,1.5,1.2,1.9,1.6h0.1l1.5-1.5V9.7C11.9,9,10.8,8.1,10.2,7.6"/>
			<path id="XMLID_1_" class="st3" d="M20.7,5.1c-1.1-3-4-5.1-7.3-5.1c-3.9,0-7,2.9-7.6,6.5c0.3,0,0.6-0.1,1-0.1
				c0.4,0,0.9,0.1,1.3,0.1l0,0c0.5-2.5,2.7-4.3,5.3-4.3c2.2,0,4.1,1.3,5,3.2c0,0,0.1,0.1,0.1,0C19.2,5.3,20,5.1,20.7,5.1
				C20.7,5.2,20.7,5.2,20.7,5.1"/>
		</g>
	</g>
</g>
</svg>
